<?xml version="1.0" encoding="UTF-8" standalone="no"?>
<svg
   xmlns:dc="http://purl.org/dc/elements/1.1/"
   xmlns:cc="http://creativecommons.org/ns#"
   xmlns:rdf="http://www.w3.org/1999/02/22-rdf-syntax-ns#"
   xmlns:svg="http://www.w3.org/2000/svg"
   xmlns="http://www.w3.org/2000/svg"
   xmlns:sodipodi="http://sodipodi.sourceforge.net/DTD/sodipodi-0.dtd"
   xmlns:inkscape="http://www.inkscape.org/namespaces/inkscape"
   version="1.1"
   id="Layer_1"
   x="0px"
   y="0px"
   viewBox="0 0 1152.155 1642.183"
   enable-background="new 0 0 1152.155 1642.183"
   xml:space="preserve"
   sodipodi:docname="stylizedchristmastree.svg"
   inkscape:version="0.92.2 5c3e80d, 2017-08-06"><metadata
     id="metadata86406"><rdf:RDF><cc:Work
         rdf:about=""><dc:format>image/svg+xml</dc:format><dc:type
           rdf:resource="http://purl.org/dc/dcmitype/StillImage" /><dc:title></dc:title><dc:creator><cc:Agent><dc:title>j4p4n</dc:title></cc:Agent></dc:creator><cc:license
           rdf:resource="http://creativecommons.org/publicdomain/zero/1.0/" /></cc:Work><cc:License
         rdf:about="http://creativecommons.org/publicdomain/zero/1.0/"><cc:permits
           rdf:resource="http://creativecommons.org/ns#Reproduction" /><cc:permits
           rdf:resource="http://creativecommons.org/ns#Distribution" /><cc:permits
           rdf:resource="http://creativecommons.org/ns#DerivativeWorks" /></cc:License></rdf:RDF></metadata><defs
     id="defs86404"><filter
       inkscape:collect="always"
       style="color-interpolation-filters:sRGB"
       id="filter87295"
       x="-0.29755202"
       width="1.595104"
       y="-0.14838531"
       height="1.2967706"><feGaussianBlur
         inkscape:collect="always"
         stdDeviation="26.447602"
         id="feGaussianBlur87297" /></filter><filter
       inkscape:collect="always"
       style="color-interpolation-filters:sRGB"
       id="filter87299"
       x="-0.23903605"
       width="1.4780721"
       y="-0.44099419"
       height="1.8819884"><feGaussianBlur
         inkscape:collect="always"
         stdDeviation="26.447602"
         id="feGaussianBlur87301" /></filter><filter
       inkscape:collect="always"
       style="color-interpolation-filters:sRGB"
       id="filter87303"
       x="-0.073960521"
       width="1.147921"
       y="-0.066578157"
       height="1.1331563"><feGaussianBlur
         inkscape:collect="always"
         stdDeviation="26.447602"
         id="feGaussianBlur87305" /></filter><filter
       inkscape:collect="always"
       style="color-interpolation-filters:sRGB"
       id="filter87307"
       x="-0.1336279"
       width="1.2672558"
       y="-0.18352094"
       height="1.3670419"><feGaussianBlur
         inkscape:collect="always"
         stdDeviation="26.447602"
         id="feGaussianBlur87309" /></filter><filter
       inkscape:collect="always"
       style="color-interpolation-filters:sRGB"
       id="filter87323"
       x="-0.064037355"
       width="1.1280747"
       y="-0.056441538"
       height="1.1128831"><feGaussianBlur
         inkscape:collect="always"
         stdDeviation="5.2774673"
         id="feGaussianBlur87325" /></filter><filter
       inkscape:collect="always"
       style="color-interpolation-filters:sRGB"
       id="filter87377"
       x="-0.047295244"
       width="1.0945905"
       y="-0.041685299"
       height="1.0833706"><feGaussianBlur
         inkscape:collect="always"
         stdDeviation="3.897711"
         id="feGaussianBlur87379" /></filter></defs><sodipodi:namedview
     pagecolor="#ffffff"
     bordercolor="#666666"
     borderopacity="1"
     objecttolerance="10"
     gridtolerance="10"
     guidetolerance="10"
     inkscape:pageopacity="0"
     inkscape:pageshadow="2"
     inkscape:window-width="1436"
     inkscape:window-height="856"
     id="namedview86402"
     showgrid="false"
     inkscape:snap-global="false"
     inkscape:zoom="0.44002985"
     inkscape:cx="501.91401"
     inkscape:cy="982.27667"
     inkscape:window-x="4"
     inkscape:window-y="0"
     inkscape:window-maximized="1"
     inkscape:current-layer="g87359" /><g
     id="g86399"><g
       id="g87359"
       transform="translate(-6.8177194)"><g
         id="g87409"><path
           style="fill:#87de87;filter:url(#filter87303)"
           id="path86408"
           d="m 513.09658,1289.2574 c 7.446,-29.382 19.608,-56.959 29.908,-85.177 1.549,-4.243 0.284,-8.03 -0.428,-11.939 -9.393,-51.538 -30.09,-99.076 -81.261,-86.113 -9.184,2.327 -12.968,8.204 -12.973,17.757 -0.003,5.295 -1.647,13.429 1.654,17.979 4.969,6.849 18.677,6.811 24.554,1.219 3.625,-3.45 7.039,-15.748 -0.471,-15.784 -11.919,-0.058 -14.12,-4.934 -9.876,-8.212 8.754,-6.763 10.887,-5.872 15.88,-0.52 16.564,17.752 2.168,33.986 -10.158,34.928 -5.623,0.43 -11.351,1.346 -16.972,-0.775 -21.77,-8.215 -32.842,-53.02 -2.268,-63.665 32.387,-11.276 60.177,-4.583 79.971,26.492 13.437,21.095 24.389,59.975 24.415,68.406 0.011,3.394 7.527,5.234 11.354,-40.524 12.691,-151.73401 -62.512,-191.15801 -91.052,-157.77401 -7.849,9.181 -4.318,28.37401 6.607,33.85401 5.69,2.854 16.11,3.523 20.566,-2.111 3.063,-3.871 2.132,-11.581 -0.292,-15.41 -3.452,-5.45401 -9.717,-4.92801 -11.715,-1.262 -3.291,6.04 7.387,13.684 3.625,16.275 -5.404,3.721 -12.734,-5.33 -12.912,-11.918 -0.634,-23.50101 29.354,-20.72101 33.424,-3.336 3.136,13.402 -12.758,41.975 -41.66,21.972 -27.895,-19.306 -17.432,-62.45601 26.944,-63.15201 -4.53,-4.854 -34.092,-25.357 -61.483,-34.274 -44.357,-14.439 -95.742,-1.707 -109.657,51.535 -7.337,28.07101 25.318,54.36301 49.94,31.48201 11.775,-10.94201 5.365,-37.32801 -12.883,-41.94901 -13.302,-3.369 -14.022,-1.559 -14.275,-5.78 -0.133,-2.216 0.439,-3.701 2.945,-3.973 9.207,-0.999 18.394,-2.746 27.614,-2.934 29.925,-0.613 45.62,35.195 47.693,56.65001 2.267,23.459 -11.99,55.37 -39.356,63.561 -34.799,10.416 -77.915,-8.561 -92.953,-27.771 -18.895,-24.137 -29.41,-99.71001 52.7,-130.87801 0.799,-0.303 2.046,-0.419 2.228,-1.543 0.249,-1.545 -1.257,-1.546 -2.13,-2.028 -27.418,-15.046 -38.994,-17.963 -43.892,-31.706 -4.612,-12.941 -8.048,-30.147 2.463,-39.012 16.707,-14.091 40.495,6.003 33.582,14.179 -3.13,3.703 -8.552,-5.542 -15.285,1.023 -12.399,12.088 -0.397,31.226 18.279,38.342 31.074,11.842 55.975,7.026 87.301,10.307 95.42,9.993 168.653,80.943 170.643,176.84701 0.302,14.567 -3.591,29.983 -3.073,36.042 8.282,-7.856 15.428,-16.129 22.527,-24.432 75.168,-87.917 74.758,-102.43801 67.647,-117.99401 -5.147,-11.258 -10.806,-21.703 -22.451,-27.575 -21.898,-11.043 -55.224,9.284 -49.349,38.31 3.708,18.31701 32.158,17.28301 36.56,6.649 2.454,-5.929 5.211,-14.995 -1.174,-15.788 -15.056,-1.87 -14.884,3.332 -15.941,9.125 -1.32,7.233 -8.825,4.46 -10.001,0.374 -7.28,-25.299 40.417,-32.78 42.463,-6.267 0.866,11.221 1.292,23.69201 -8.641,31.38601 -18.406,14.258 -60.401,-4.841 -57.041,-36.60001 0.704,-6.658 11.767,-48.686 42.418,-50.769 25.482,-1.731 51.485,-2.893 63.407,48.15 0.316,1.351 0.51,3.103 1.872,3.365 2.891,0.555 22.339,-41.348 28.002,-58.012 2.585,-7.607 3.614,-14.723 -0.154,-22.46 -14.165,-29.088 -25.523,-48.065 -52.918,-30.787 -15.981,10.079 -8.39,26.122 -0.159,34.215 2.659,2.614 14.736,2.641 17.75,0.474 2.704,-1.944 2.296,-2.204 2.252,-16.846 -0.009,-3.052 -6.301,-1.601 -7.383,-1.084 -5.198,2.483 -5.227,2.41 -3.141,7.644 0.301,0.756 0.791,1.557 0.743,2.309 -0.133,2.112 1.567,5.145 -1.639,5.967 -3.043,0.78 -6.643,-0.042 -7.535,-3.331 -8.024,-29.583 24.619,-27.962 30.749,-12.507 6.562,16.545 -14.387,39.64 -39.065,22.342 -18.227,-12.776 -14.752,-45.322 0.89,-55.316 14.342,-9.162 41.781,-7.461 54.644,15.327 20.034,35.492 -4.03,-39.13 -44.122,-70.456 -14.922,-11.659 -31.775,-18.374 -50.895,-18.659 -14.223,-0.212 -127.411,31.722 -106.022,89.076 8.689,23.299 19.783,34.396 42.927,32.862 5.024,-0.333 7.026,-13.444 8.241,-18.598 2.112,-8.96 0.218,-17.482 11.501,-17.276 28.813,0.525 30.115,38.806 13.067,51.754 -13.126,9.969 -37.504,9.889 -52.097,5.606 -47.235,-13.864 -46.67,-93.327 -54.203,-106.955 -10.754,-19.455 -23.932,-27.451 -30.057,-28.621 -38.082,-7.276 -56.698,5.663 -47.996,43.972 1.776,7.818 7.43,11.66 14.907,13.395 19.099,4.431 29.35,-11.308 25.119,-19.481 -3.207,-6.194 -7.981,-14.335 -13.986,-11.825 -8.562,3.578 0.656,21.741 -1.499,24.732 -1.786,2.478 -6.268,1.295 -8.339,-0.056 -12.193,-7.962 -7.458,-32.71 8.789,-35.831 12.521,-2.405 33.785,7.012 29.696,26.826 -4.661,22.584 -16.576,27.537 -38.049,26.341 -25.807,-1.437 -39.025,-34.479 -33.495,-62.201 4.559,-22.858 35.74,-32.089 55.816,-30.124 31.59,3.091 46.158,44.986 50.242,47.322 25.98,-51.643 76.884,-79.168 134.222,-78.638 13.766,0.128 -24.206,-19.34 -58.585,-15.022 -104.318,13.101 -109.121,23.235 -136.259,7.534 -21.009,-12.155 -32.29,-34.483 -41.354,-57.18 -0.431,-1.08 -2.372,-3.255 0.297,-4.01 1.714,-0.485 4.083,-1.098 4.827,2.032 4.355,18.318 35.427,25.166 54.562,29.561 4.786,1.099 9.259,0.495 13.974,-0.508 -6.646,-3.963 -20.909,-5.985 -32.663,-16.028 -16.245,-13.881 -19.144,-47.764 1.254,-61.147 21.75,-14.27 57.943,-6.628 55.835,26.644 -1.271,20.068 -17.985,25.131 -28.244,21.951 -7.625,-2.365 -19.34,-21.004 -6.675,-30.17 6.56,-4.748 16.914,-3.72 19.988,-0.729 2.577,2.508 1.714,6.908 -3.23,6.767 -2.554,-0.073 -7.47,-2.14 -11.292,1.318 -5.573,5.044 -0.151,13.354 13.296,9.734 8.877,-2.39 7.178,-13.308 6.048,-20.645 -1.631,-10.589 -17.274,-9.545 -24.758,-8.691 -11.69,1.335 -17.531,8.372 -18.207,21.334 -1.027,19.695 8.443,32.233 29.289,38.801 35.462,11.173 49.405,-0.806 83.655,-3.604 45.127,-3.686 74.651,29.431 91.141,42.417 0.558,-9.056 -9.3,-38.753 16.412,-57.651 1.34,-0.985 2.715,-2.164 4.447,-1.355 1.895,0.885 1.365,2.844 1.309,4.392 -1.661,46.368 23.109,74.863 25.373,74.05 1.233,-0.443 0.727,-1.626 0.791,-2.484 2.742,-37.138 22.885,-62.385 57.207,-78.792 5.802,-2.773 24.317,-40.383 -2.731,-54.179 -9.122,-4.653 -20.218,-1.615 -27.401,5.163 -15.173,14.318 9.827,43 19.22,18.417 2.893,-7.571 -3.314,-8.238 -7.25,-6.009 -6.572,3.722 -9.211,6.95 -11.434,4.838 -3.323,-3.157 3.2,-10.997 9.811,-12.268 19.399,-3.729 25.169,19.976 9.716,29.68 -13.29,8.345 -27.878,-1.268 -31.5,-12.461 -11.596,-35.839 29.612,-49.815 47.366,-39.833 42.643,23.976 1.771,68.061 11.153,68.688 38.579,2.578 71.343,41.496 65.181,80.091 -6.71,42.024 -86.383,50.21 -97.881,6.682 -1.475,-5.584 -1.19,-11.388 -1.046,-17.128 0.037,-1.465 0.417,-2.803 2.259,-2.784 1.7,0.018 3.736,-0.553 4.437,1.839 3.299,11.245 12.277,13.701 22.315,14.2 29.246,1.451 26.535,-52.732 -11.891,-45.153 -42.219,8.327 -43.445,56.095 -38.467,69.735 17.098,46.851 30.407,42.909 38.331,95.598 0.143,0.953 0.169,2.122 1.266,2.354 1.455,0.308 1.751,-1.087 2.112,-2.037 31.942,-84.115 97.017,-57.789 107.075,-25.172 6.006,19.477 -1.106,48.243 -20.327,58.249 -14.523,7.56 -38.148,1.672 -46.018,-9.354 -18.668,-26.152 27.521,-58.567 39.628,-28.53 3.245,8.051 0.073,29.846 -12.312,22.382 -2.881,-1.737 -1.164,-3.649 -0.171,-5.565 2.8,-5.405 3.106,-17.195 -5.174,-17.811 -12.679,-0.944 -18.317,34.696 10.646,32.224 11.411,-0.974 18.321,-8.211 18.745,-19.797 0.597,-16.309 0.561,-35.486 -19.746,-38.765 -28.936,-4.671 -55.914,1.541 -69.128,71.031 -4.703,24.73 -6.64,56.435 -6.005,57.435 12.088,-11.716 41.709,-44.026 70.212,-43.27 122.852,3.257 117.282,9.714 150.803,-25.433 3.463,-3.631 4.393,-2.15 3.942,-0.62 -9.918,33.668 -24.934,63.597 -61.528,65.571 -43.293,2.334 -117.5,-22.027 -166.093,21.403 -4.715,4.214 -11.055,13.841 -9.783,18.996 16.179,-9.747 52.845,-33.603 98.2,-24.124 118.461,24.758 77.147,150.81501 14.898,143.30901 -14.21,-1.714 -34.207,-9.019 -35.026,-15.518 -0.168,-1.332 -0.534,-3.042 0.885,-3.69 1.423,-0.65 3.408,-0.947 4.51,0.612 6.152,8.701 32.251,-7.24 37.141,-11.832 7.809,-7.334 11.594,-16.583 12.868,-27.104 4.417,-36.475 -23.275,-49.114 -59.132,-57.04701 -34.684,-7.673 -72.312,16.57701 -75.301,20.11301 4.706,1.523 13.328,-3.095 26.491,-4.531 24.424,-2.663 46.022,9.26 50.696,36.242 6.541,37.764 -28.548,53.402 -49.186,50.751 -21.793,-2.8 -31.108,-24.943 -24.011,-42.049 4.928,-11.877 20.692,-15.174 31.714,-9.757 11.131,5.47 14.822,22.119 3.971,29.354 -3.577,2.385 -6.485,5.984 -11.482,5.234 -1.957,-0.294 -3.741,-0.821 -4.95,-2.503 -3.475,-4.834 0.963,-5.037 7.728,-8.913 5.036,-2.886 9.564,-12.219 -3.94,-11.657 -14.515,0.603 -21.418,14.047 -5.515,26.278 17.125,13.171 36.415,-6.57 37.257,-23.789 1.499,-30.673 -52.351,-67.47101 -129.934,30.288 -89.205,112.404 -136.782,189.789 -132.038,333.138 1.513,45.709 22.625,102.878 23.791,112.377 -8.226,-7.453 -42.683,-51.673 -63.799,-126.014 -6.049,-21.296 -8.781,-47.124 -33.694,-63.622 -18.602,-12.319 -44.967,-7.065 -53.989,10.117 -4.63,8.817 -8.071,42.25 15.871,43.322 29.711,1.33 26.193,-23.942 16.668,-28.71 -4.775,-2.391 -13.276,-0.614 -11.414,7.972 0.692,3.192 2.481,8.455 2.066,11.668 -0.498,3.859 -7.177,3.185 -9.753,1.802 -4.02,-2.159 -3.375,-7.484 -3.381,-15.434 -0.015,-17.023 13.295,-23.939 27.092,-18.936 29.049,10.534 19.3,62.583 -20.35,53.829 -31.163,-6.881 -46.5,-44.552 -30.554,-73.476 5.485,-9.949 27.909,-22.191 47.511,-19.671 12.917,1.661 39.974,14.426 43.547,28.548 0.173,0.684 0.267,1.373 1.156,1.397 1.857,0.05 0.169,1.281 4.139,-28.019 0.953,-7.034 -32.212,-98.648 -50.187,-116.316 -21.662,-21.292 -51.859,-35.929 -78.754,-42.653 -113.451,-24.071 -156.638,63.521 -83.517,125.44 4.876,4.125 -6.417,5.271 -27.227,-12.999 -19.412,-17.042 -31.671,-48.932 -23.164,-70.341 0.355,-0.894 0.871,-1.931 -0.508,-2.307 -1.201,-0.328 -1.566,0.628 -1.881,1.617 -8.997,28.249 -12.462,34.682 -8.734,59.33 14.066,92.996 150.478,54.969 140.529,-0.045 -1.502,-8.308 -11.867,-26.873 -29.16,-28.71 -2.574,-0.273 -2.476,-2.06 -2.43,-3.889 0.042,-1.697 0.082,-3.046 2.49,-3.362 10.811,-1.417 25.117,-8.101 38.57,6.686 30.406,33.422 34.626,98.906 -28.587,121.658 -90.997,32.752 -118.83,-41.211 -124.308,-40.546 -2.175,0.264 -2.198,2.185 -2.741,3.632 -4.6,12.252 -10.514,23.738 -20.448,32.56 -19.864,17.642 -86.294,14.328 -68.363,-46.011 8.457,-28.456 37.164,-29.516 51.326,-19.311 14.272,10.284 10.711,34.666 -8.567,40.208 -17.935,5.157 -26.209,-11.129 -21.822,-25.016 1.076,-3.407 4.276,-3.831 7.505,-3.401 4.083,0.544 -0.249,18.92 8.591,19.538 8.773,0.612 11.799,-10.446 6.815,-19.542 -5.574,-10.174 -23.784,-10.247 -31.401,3.136 -8.789,15.443 2.436,37.713 19.807,39.773 40.102,4.754 51.401,-41.614 49.661,-45.794 -12.599,-30.275 -29.716,-138.781 83.43,-169.482 31.948,-8.669 74.598,-4.575 108.199,14.528 65.653,37.324 99.495,136.093 100.991,146.374 z"
           inkscape:connector-curvature="0" /><path
           style="fill:#87de87;filter:url(#filter87295)"
           id="path86410"
           d="m 681.78658,528.26939 c -11.928,9.895 -25.647,21.951 -40.894,25.407 -31.385,7.112 -63.958,-7.563 -78.148,-19.997 -17.699,-15.508 -17.153,-39.103 -9.674,-29.082 6.898,9.244 14.739,17.53 24.395,23.981 32.094,21.442 52.153,11.351 63.577,7.624 20.77,-6.776 44.219,-20.345 48.731,-41.83 3.176,-15.12 -3.004,-46.648 -6.253,-59.793 -23.342,-94.447 -73.973,-60.489 -59.568,-34.951 3.81,6.754 8.575,6.295 14.621,4.163 10.706,-3.777 5.399,-15.172 -1.423,-14.565 -6.903,0.614 3.651,10.884 -1.375,12.758 -9.298,3.467 -9.223,-12.021 -7.034,-16.37 3.337,-6.625 20.929,-5.417 22.39,2.025 7.901,40.254 -47.315,27.21 -39.964,-9.097 4,-19.76 34.924,-12.543 31.009,-18.9 -45.322,-73.587 -91.35,-64.042 -96.43,-39.25 -2.664,13.003 -0.386,21.659 9.313,28.683 16.802,12.169 32.943,-11.655 21.305,-20.891 -8.614,-6.836 -16.637,4.18 -10.685,8.76 1.942,1.494 5.06,1.767 5.917,4.062 0.612,1.639 -0.454,3.558 -2.013,4.352 -5.603,2.854 -16.983,-4.872 -15.486,-15.948 1.967,-14.557 22.255,-19.722 32.081,-5.91 10.67,14.998 -1.831,38.83 -23.034,35.732 -24.419,-3.568 -39.118,-17.916 -34.598,-41.795 4.571,-24.146 26.387,-30.385 49.529,-27.064 15.694,2.252 8.674,2.046 -2.908,-23.737 -18.875,-42.017 -13.411,-59.847 -10.565,-76.334 0.928,-5.376 6.593,-34.164 11.861,-32.885 3.56,0.864 -1.076,3.936 -1.888,41.014 -0.582,26.578 -1.016,37.293 13.007,61.521 23.47,40.548 69.133,87.788 91.033,107.054 33.437,29.417 57.391,132.202 7.619,183.033 -35.293,36.045 -76.524,42.384 -122.609,27.849 -33.924,-10.699 -56.738,-32.979 -61.258,-69.375 -10.636,-85.638 67.4,-120.98 103.423,-86.628 16.544,15.776 4.49,44.186 -14.586,51.72 -21.763,8.595 -26.738,-12.434 -21.637,-18.998 2.638,-3.395 11.457,-4.283 13.315,2.351 2.55,9.099 0.356,14.356 6.508,11.367 7.66,-3.723 15.705,-14.634 14.244,-23.388 -5.388,-32.275 -84.84,-45.265 -74.954,61.484 4.207,45.427 49.992,64.028 89.608,68.362 29.507,3.228 51.152,-17.281 63.481,-44.736 0.141,-0.315 0.017,-0.748 0.017,-1.778 z"
           inkscape:connector-curvature="0" /><path
           style="fill:#87de87;filter:url(#filter87299)"
           id="path86412"
           d="m 686.76958,608.64839 c -73.941,56.816 -189.675,23.803 -211.371,-86.754 -0.245,-1.25 -0.501,-2.939 1.454,-3.267 6.122,-1.026 4.396,2.264 12.787,18.767 21.485,42.258 54.235,68.839 100.78,70.456 41.405,1.439 81.13,0.589 114.246,-44.258 18.469,-25.012 30.042,-61.982 29.765,-68.338 -0.098,-2.254 0.8,-3.179 3.111,-3.187 6.204,-0.024 9.718,70.1 -50.772,116.581 z"
           inkscape:connector-curvature="0" /><path
           style="fill:#87de87;fill-opacity:1;filter:url(#filter87307)"
           id="path87005"
           d="m 821.57958,1279.6744 c -6.835,-13.28 -26.279,-8.459 -39.43,-0.244 -18.326,11.446 -23.799,35.219 -24.729,56.895 -1.796,41.892 39.365,58.021 81.035,63.147 38.049,4.68 60.046,-6.138 76.617,-32.034 17.43,-27.239 25.981,-80.195 20.176,-79.305 -0.691,0.106 -1.174,0.704 -1.283,1.428 -3.58,23.825 -39.195,34.861 -56.179,10.431 -12.077,-17.373 9.971,-45.628 29.537,-36.693 15.708,7.173 12.204,26.481 -2.622,27.685 -6.141,0.499 -12.491,-3.901 -13.398,-9.603 -0.564,-3.548 1.571,-6.573 3.022,-9.563 0.648,-1.335 2.459,-0.049 3.598,0.643 5.581,3.388 -2.994,6.78 0.469,10.552 2.277,2.48 7.541,1.451 8.807,-1.572 1.539,-3.675 1.104,-17 -11.572,-13.608 -14.983,4.01 -13.076,23.483 -1.583,30.551 6.588,4.051 28.404,7.342 37.642,-21.91 6.12,-19.381 -34.803,-106.26 -102.752,-111.779 -23.164,-1.882 -45.798,-0.235 -67.347,9.133 -63.999,27.825 -110.694,111.87 -109.175,114.748 0.817,1.549 1.657,0.804 16.757,-0.832 23.095,-2.502 46.911,13.04 48.324,37.396 1.996,34.394 -34.214,56.314 -56.509,38.872 -9.526,-7.452 -13.259,-21.074 -7.172,-31.862 8.15,-14.446 30.222,-15.608 35.888,1.819 5.152,15.846 -8.279,21.939 -11.081,18.819 -3.24,-3.607 7.275,-16.953 -1.553,-19.903 -14.773,-4.936 -21.666,28.337 4.885,27.264 10.956,-0.443 21.917,-10.341 18.585,-34.576 -4.14,-30.113 -80.286,-33.028 -85.651,71.835 -1.302,25.45 4.963,60.885 1.21,62.107 -2.457,0.8 -46.185,-41.161 -36.833,-130.924 9.007,-86.449 84.091,-181.001 165.956,-206.705 79.357,-24.917 139.422,9.271 195.536,68.625 9.993,10.57 24.46,43.458 63.04402,39.461 13.953,-1.445 26.006,-9.023 28.82,-22.825 6.136,-30.449 -21.74,-47.313 -35.96505,-31.325 -20.09497,22.584 12.39805,36.219 13.30205,21.069 0.295,-4.947 -5.125,-10.009 -7.854,-13.637 -5.95505,-7.919 7.359,-6.917 12.06,-3.679 10.579,7.287 8.935,34.593 -11.773,34.682 -5.38705,0.023 -10.70902,-0.441 -15.45702,-3.09 -19.08,-10.644 -10.95,-59.191 31.00602,-48.328 67.149,17.386 30.314,118.174 -47.71402,75.513 -1.984,-1.084 -6.268,-5.413 -4.997,3.411 5.612,38.963 8.1,35.919 -2.323,73.747 -12.218,44.34 -35.055,81.476 -79.344,93.862 -60.579,16.941 -150.648,-20.162 -133.509,-103.009 6.754,-32.648 23.246,-58.089 56.069,-62.071 61.396,-7.448 60.544,75.486 12.01,69.327 -11.327,-1.437 -25.834,-26.624 -10.908,-34.883 2.492,-1.379 4.669,-1.778 7.348,-0.798 2.249,0.823 4.668,1.175 7.01,1.736 z"
           inkscape:connector-curvature="0" /><path
           d="m 513.09658,1289.2574 c 7.446,-29.382 19.608,-56.959 29.908,-85.177 1.549,-4.243 0.284,-8.03 -0.428,-11.939 -9.393,-51.538 -30.09,-99.076 -81.261,-86.113 -9.184,2.327 -12.968,8.204 -12.973,17.757 -0.003,5.295 -1.647,13.429 1.654,17.979 4.969,6.849 18.677,6.811 24.554,1.219 3.625,-3.45 7.039,-15.748 -0.471,-15.784 -11.919,-0.058 -14.12,-4.934 -9.876,-8.212 8.754,-6.763 10.887,-5.872 15.88,-0.52 16.564,17.752 2.168,33.986 -10.158,34.928 -5.623,0.43 -11.351,1.346 -16.972,-0.775 -21.77,-8.215 -32.842,-53.02 -2.268,-63.665 32.387,-11.276 60.177,-4.583 79.971,26.492 13.437,21.095 24.389,59.975 24.415,68.406 0.011,3.394 7.527,5.234 11.354,-40.524 12.691,-151.73401 -62.512,-191.15801 -91.052,-157.77401 -7.849,9.181 -4.318,28.37401 6.607,33.85401 5.69,2.854 16.11,3.523 20.566,-2.111 3.063,-3.871 2.132,-11.581 -0.292,-15.41 -3.452,-5.45401 -9.717,-4.92801 -11.715,-1.262 -3.291,6.04 7.387,13.684 3.625,16.275 -5.404,3.721 -12.734,-5.33 -12.912,-11.918 -0.634,-23.50101 29.354,-20.72101 33.424,-3.336 3.136,13.402 -12.758,41.975 -41.66,21.972 -27.895,-19.306 -17.432,-62.45601 26.944,-63.15201 -4.53,-4.854 -34.092,-25.357 -61.483,-34.274 -44.357,-14.439 -95.742,-1.707 -109.657,51.535 -7.337,28.07101 25.318,54.36301 49.94,31.48201 11.775,-10.94201 5.365,-37.32801 -12.883,-41.94901 -13.302,-3.369 -14.022,-1.559 -14.275,-5.78 -0.133,-2.216 0.439,-3.701 2.945,-3.973 9.207,-0.999 18.394,-2.746 27.614,-2.934 29.925,-0.613 45.62,35.195 47.693,56.65001 2.267,23.459 -11.99,55.37 -39.356,63.561 -34.799,10.416 -77.915,-8.561 -92.953,-27.771 -18.895,-24.137 -29.41,-99.71001 52.7,-130.87801 0.799,-0.303 2.046,-0.419 2.228,-1.543 0.249,-1.545 -1.257,-1.546 -2.13,-2.028 -27.418,-15.046 -38.994,-17.963 -43.892,-31.706 -4.612,-12.941 -8.048,-30.147 2.463,-39.012 16.707,-14.091 40.495,6.003 33.582,14.179 -3.13,3.703 -8.552,-5.542 -15.285,1.023 -12.399,12.088 -0.397,31.226 18.279,38.342 31.074,11.842 55.975,7.026 87.301,10.307 95.42,9.993 168.653,80.943 170.643,176.84701 0.302,14.567 -3.591,29.983 -3.073,36.042 8.282,-7.856 15.428,-16.129 22.527,-24.432 75.168,-87.917 74.758,-102.43801 67.647,-117.99401 -5.147,-11.258 -10.806,-21.703 -22.451,-27.575 -21.898,-11.043 -55.224,9.284 -49.349,38.31 3.708,18.31701 32.158,17.28301 36.56,6.649 2.454,-5.929 5.211,-14.995 -1.174,-15.788 -15.056,-1.87 -14.884,3.332 -15.941,9.125 -1.32,7.233 -8.825,4.46 -10.001,0.374 -7.28,-25.299 40.417,-32.78 42.463,-6.267 0.866,11.221 1.292,23.69201 -8.641,31.38601 -18.406,14.258 -60.401,-4.841 -57.041,-36.60001 0.704,-6.658 11.767,-48.686 42.418,-50.769 25.482,-1.731 51.485,-2.893 63.407,48.15 0.316,1.351 0.51,3.103 1.872,3.365 2.891,0.555 22.339,-41.348 28.002,-58.012 2.585,-7.607 3.614,-14.723 -0.154,-22.46 -14.165,-29.088 -25.523,-48.065 -52.918,-30.787 -15.981,10.079 -8.39,26.122 -0.159,34.215 2.659,2.614 14.736,2.641 17.75,0.474 2.704,-1.944 2.296,-2.204 2.252,-16.846 -0.009,-3.052 -6.301,-1.601 -7.383,-1.084 -5.198,2.483 -5.227,2.41 -3.141,7.644 0.301,0.756 0.791,1.557 0.743,2.309 -0.133,2.112 1.567,5.145 -1.639,5.967 -3.043,0.78 -6.643,-0.042 -7.535,-3.331 -8.024,-29.583 24.619,-27.962 30.749,-12.507 6.562,16.545 -14.387,39.64 -39.065,22.342 -18.227,-12.776 -14.752,-45.322 0.89,-55.316 14.342,-9.162 41.781,-7.461 54.644,15.327 20.034,35.492 -4.03,-39.13 -44.122,-70.456 -14.922,-11.659 -31.775,-18.374 -50.895,-18.659 -14.223,-0.212 -127.411,31.722 -106.022,89.076 8.689,23.299 19.783,34.396 42.927,32.862 5.024,-0.333 7.026,-13.444 8.241,-18.598 2.112,-8.96 0.218,-17.482 11.501,-17.276 28.813,0.525 30.115,38.806 13.067,51.754 -13.126,9.969 -37.504,9.889 -52.097,5.606 -47.235,-13.864 -46.67,-93.327 -54.203,-106.955 -10.754,-19.455 -23.932,-27.451 -30.057,-28.621 -38.082,-7.276 -56.698,5.663 -47.996,43.972 1.776,7.818 7.43,11.66 14.907,13.395 19.099,4.431 29.35,-11.308 25.119,-19.481 -3.207,-6.194 -7.981,-14.335 -13.986,-11.825 -8.562,3.578 0.656,21.741 -1.499,24.732 -1.786,2.478 -6.268,1.295 -8.339,-0.056 -12.193,-7.962 -7.458,-32.71 8.789,-35.831 12.521,-2.405 33.785,7.012 29.696,26.826 -4.661,22.584 -16.576,27.537 -38.049,26.341 -25.807,-1.437 -39.025,-34.479 -33.495,-62.201 4.559,-22.858 35.74,-32.089 55.816,-30.124 31.59,3.091 46.158,44.986 50.242,47.322 25.98,-51.643 76.884,-79.168 134.222,-78.638 13.766,0.128 -24.206,-19.34 -58.585,-15.022 -104.318,13.101 -109.121,23.235 -136.259,7.534 -21.009,-12.155 -32.29,-34.483 -41.354,-57.18 -0.431,-1.08 -2.372,-3.255 0.297,-4.01 1.714,-0.485 4.083,-1.098 4.827,2.032 4.355,18.318 35.427,25.166 54.562,29.561 4.786,1.099 9.259,0.495 13.974,-0.508 -6.646,-3.963 -20.909,-5.985 -32.663,-16.028 -16.245,-13.881 -19.144,-47.764 1.254,-61.147 21.75,-14.27 57.943,-6.628 55.835,26.644 -1.271,20.068 -17.985,25.131 -28.244,21.951 -7.625,-2.365 -19.34,-21.004 -6.675,-30.17 6.56,-4.748 16.914,-3.72 19.988,-0.729 2.577,2.508 1.714,6.908 -3.23,6.767 -2.554,-0.073 -7.47,-2.14 -11.292,1.318 -5.573,5.044 -0.151,13.354 13.296,9.734 8.877,-2.39 7.178,-13.308 6.048,-20.645 -1.631,-10.589 -17.274,-9.545 -24.758,-8.691 -11.69,1.335 -17.531,8.372 -18.207,21.334 -1.027,19.695 8.443,32.233 29.289,38.801 35.462,11.173 49.405,-0.806 83.655,-3.604 45.127,-3.686 74.651,29.431 91.141,42.417 0.558,-9.056 -9.3,-38.753 16.412,-57.651 1.34,-0.985 2.715,-2.164 4.447,-1.355 1.895,0.885 1.365,2.844 1.309,4.392 -1.661,46.368 23.109,74.863 25.373,74.05 1.233,-0.443 0.727,-1.626 0.791,-2.484 2.742,-37.138 22.885,-62.385 57.207,-78.792 5.802,-2.773 24.317,-40.383 -2.731,-54.179 -9.122,-4.653 -20.218,-1.615 -27.401,5.163 -15.173,14.318 9.827,43 19.22,18.417 2.893,-7.571 -3.314,-8.238 -7.25,-6.009 -6.572,3.722 -9.211,6.95 -11.434,4.838 -3.323,-3.157 3.2,-10.997 9.811,-12.268 19.399,-3.729 25.169,19.976 9.716,29.68 -13.29,8.345 -27.878,-1.268 -31.5,-12.461 -11.596,-35.839 29.612,-49.815 47.366,-39.833 42.643,23.976 1.771,68.061 11.153,68.688 38.579,2.578 71.343,41.496 65.181,80.091 -6.71,42.024 -86.383,50.21 -97.881,6.682 -1.475,-5.584 -1.19,-11.388 -1.046,-17.128 0.037,-1.465 0.417,-2.803 2.259,-2.784 1.7,0.018 3.736,-0.553 4.437,1.839 3.299,11.245 12.277,13.701 22.315,14.2 29.246,1.451 26.535,-52.732 -11.891,-45.153 -42.219,8.327 -43.445,56.095 -38.467,69.735 17.098,46.851 30.407,42.909 38.331,95.598 0.143,0.953 0.169,2.122 1.266,2.354 1.455,0.308 1.751,-1.087 2.112,-2.037 31.942,-84.115 97.017,-57.789 107.075,-25.172 6.006,19.477 -1.106,48.243 -20.327,58.249 -14.523,7.56 -38.148,1.672 -46.018,-9.354 -18.668,-26.152 27.521,-58.567 39.628,-28.53 3.245,8.051 0.073,29.846 -12.312,22.382 -2.881,-1.737 -1.164,-3.649 -0.171,-5.565 2.8,-5.405 3.106,-17.195 -5.174,-17.811 -12.679,-0.944 -18.317,34.696 10.646,32.224 11.411,-0.974 18.321,-8.211 18.745,-19.797 0.597,-16.309 0.561,-35.486 -19.746,-38.765 -28.936,-4.671 -55.914,1.541 -69.128,71.031 -4.703,24.73 -6.64,56.435 -6.005,57.435 12.088,-11.716 41.709,-44.026 70.212,-43.27 122.852,3.257 117.282,9.714 150.803,-25.433 3.463,-3.631 4.393,-2.15 3.942,-0.62 -9.918,33.668 -24.934,63.597 -61.528,65.571 -43.293,2.334 -117.5,-22.027 -166.093,21.403 -4.715,4.214 -11.055,13.841 -9.783,18.996 16.179,-9.747 52.845,-33.603 98.2,-24.124 118.461,24.758 77.147,150.81501 14.898,143.30901 -14.21,-1.714 -34.207,-9.019 -35.026,-15.518 -0.168,-1.332 -0.534,-3.042 0.885,-3.69 1.423,-0.65 3.408,-0.947 4.51,0.612 6.152,8.701 32.251,-7.24 37.141,-11.832 7.809,-7.334 11.594,-16.583 12.868,-27.104 4.417,-36.475 -23.275,-49.114 -59.132,-57.04701 -34.684,-7.673 -72.312,16.57701 -75.301,20.11301 4.706,1.523 13.328,-3.095 26.491,-4.531 24.424,-2.663 46.022,9.26 50.696,36.242 6.541,37.764 -28.548,53.402 -49.186,50.751 -21.793,-2.8 -31.108,-24.943 -24.011,-42.049 4.928,-11.877 20.692,-15.174 31.714,-9.757 11.131,5.47 14.822,22.119 3.971,29.354 -3.577,2.385 -6.485,5.984 -11.482,5.234 -1.957,-0.294 -3.741,-0.821 -4.95,-2.503 -3.475,-4.834 0.963,-5.037 7.728,-8.913 5.036,-2.886 9.564,-12.219 -3.94,-11.657 -14.515,0.603 -21.418,14.047 -5.515,26.278 17.125,13.171 36.415,-6.57 37.257,-23.789 1.499,-30.673 -52.351,-67.47101 -129.934,30.288 -89.205,112.404 -136.782,189.789 -132.038,333.138 1.513,45.709 22.625,102.878 23.791,112.377 -8.226,-7.453 -42.683,-51.673 -63.799,-126.014 -6.049,-21.296 -8.781,-47.124 -33.694,-63.622 -18.602,-12.319 -44.967,-7.065 -53.989,10.117 -4.63,8.817 -8.071,42.25 15.871,43.322 29.711,1.33 26.193,-23.942 16.668,-28.71 -4.775,-2.391 -13.276,-0.614 -11.414,7.972 0.692,3.192 2.481,8.455 2.066,11.668 -0.498,3.859 -7.177,3.185 -9.753,1.802 -4.02,-2.159 -3.375,-7.484 -3.381,-15.434 -0.015,-17.023 13.295,-23.939 27.092,-18.936 29.049,10.534 19.3,62.583 -20.35,53.829 -31.163,-6.881 -46.5,-44.552 -30.554,-73.476 5.485,-9.949 27.909,-22.191 47.511,-19.671 12.917,1.661 39.974,14.426 43.547,28.548 0.173,0.684 0.267,1.373 1.156,1.397 1.857,0.05 0.169,1.281 4.139,-28.019 0.953,-7.034 -32.212,-98.648 -50.187,-116.316 -21.662,-21.292 -51.859,-35.929 -78.754,-42.653 -113.451,-24.071 -156.638,63.521 -83.517,125.44 4.876,4.125 -6.417,5.271 -27.227,-12.999 -19.412,-17.042 -31.671,-48.932 -23.164,-70.341 0.355,-0.894 0.871,-1.931 -0.508,-2.307 -1.201,-0.328 -1.566,0.628 -1.881,1.617 -8.997,28.249 -12.462,34.682 -8.734,59.33 14.066,92.996 150.478,54.969 140.529,-0.045 -1.502,-8.308 -11.867,-26.873 -29.16,-28.71 -2.574,-0.273 -2.476,-2.06 -2.43,-3.889 0.042,-1.697 0.082,-3.046 2.49,-3.362 10.811,-1.417 25.117,-8.101 38.57,6.686 30.406,33.422 34.626,98.906 -28.587,121.658 -90.997,32.752 -118.83,-41.211 -124.308,-40.546 -2.175,0.264 -2.198,2.185 -2.741,3.632 -4.6,12.252 -10.514,23.738 -20.448,32.56 -19.864,17.642 -86.294,14.328 -68.363,-46.011 8.457,-28.456 37.164,-29.516 51.326,-19.311 14.272,10.284 10.711,34.666 -8.567,40.208 -17.935,5.157 -26.209,-11.129 -21.822,-25.016 1.076,-3.407 4.276,-3.831 7.505,-3.401 4.083,0.544 -0.249,18.92 8.591,19.538 8.773,0.612 11.799,-10.446 6.815,-19.542 -5.574,-10.174 -23.784,-10.247 -31.401,3.136 -8.789,15.443 2.436,37.713 19.807,39.773 40.102,4.754 51.401,-41.614 49.661,-45.794 -12.599,-30.275 -29.716,-138.781 83.43,-169.482 31.948,-8.669 74.598,-4.575 108.199,14.528 65.653,37.324 99.495,136.093 100.991,146.374 z"
           id="path86333"
           style="fill:#008033"
           inkscape:connector-curvature="0" /><path
           d="m 821.57958,1279.6744 c -6.835,-13.28 -26.279,-8.459 -39.43,-0.244 -18.326,11.446 -23.799,35.219 -24.729,56.895 -1.796,41.892 39.365,58.021 81.035,63.147 38.049,4.68 60.046,-6.138 76.617,-32.034 17.43,-27.239 25.981,-80.195 20.176,-79.305 -0.691,0.106 -1.174,0.704 -1.283,1.428 -3.58,23.825 -39.195,34.861 -56.179,10.431 -12.077,-17.373 9.971,-45.628 29.537,-36.693 15.708,7.173 12.204,26.481 -2.622,27.685 -6.141,0.499 -12.491,-3.901 -13.398,-9.603 -0.564,-3.548 1.571,-6.573 3.022,-9.563 0.648,-1.335 2.459,-0.049 3.598,0.643 5.581,3.388 -2.994,6.78 0.469,10.552 2.277,2.48 7.541,1.451 8.807,-1.572 1.539,-3.675 1.104,-17 -11.572,-13.608 -14.983,4.01 -13.076,23.483 -1.583,30.551 6.588,4.051 28.404,7.342 37.642,-21.91 6.12,-19.381 -34.803,-106.26 -102.752,-111.779 -23.164,-1.882 -45.798,-0.235 -67.347,9.133 -63.999,27.825 -110.694,111.87 -109.175,114.748 0.817,1.549 1.657,0.804 16.757,-0.832 23.095,-2.502 46.911,13.04 48.324,37.396 1.996,34.394 -34.214,56.314 -56.509,38.872 -9.526,-7.452 -13.259,-21.074 -7.172,-31.862 8.15,-14.446 30.222,-15.608 35.888,1.819 5.152,15.846 -8.279,21.939 -11.081,18.819 -3.24,-3.607 7.275,-16.953 -1.553,-19.903 -14.773,-4.936 -21.666,28.337 4.885,27.264 10.956,-0.443 21.917,-10.341 18.585,-34.576 -4.14,-30.113 -80.286,-33.028 -85.651,71.835 -1.302,25.45 4.963,60.885 1.21,62.107 -2.457,0.8 -46.185,-41.161 -36.833,-130.924 9.007,-86.449 84.091,-181.001 165.956,-206.705 79.357,-24.917 139.422,9.271 195.536,68.625 9.993,10.57 24.46,43.458 63.04402,39.461 13.953,-1.445 26.006,-9.023 28.82,-22.825 6.136,-30.449 -21.74,-47.313 -35.96505,-31.325 -20.09497,22.584 12.39805,36.219 13.30205,21.069 0.295,-4.947 -5.125,-10.009 -7.854,-13.637 -5.95505,-7.919 7.359,-6.917 12.06,-3.679 10.579,7.287 8.935,34.593 -11.773,34.682 -5.38705,0.023 -10.70902,-0.441 -15.45702,-3.09 -19.08,-10.644 -10.95,-59.191 31.00602,-48.328 67.149,17.386 30.314,118.174 -47.71402,75.513 -1.984,-1.084 -6.268,-5.413 -4.997,3.411 5.612,38.963 8.1,35.919 -2.323,73.747 -12.218,44.34 -35.055,81.476 -79.344,93.862 -60.579,16.941 -150.648,-20.162 -133.509,-103.009 6.754,-32.648 23.246,-58.089 56.069,-62.071 61.396,-7.448 60.544,75.486 12.01,69.327 -11.327,-1.437 -25.834,-26.624 -10.908,-34.883 2.492,-1.379 4.669,-1.778 7.348,-0.798 2.249,0.823 4.668,1.175 7.01,1.736 z"
           id="path86335"
           style="fill:#008033"
           inkscape:connector-curvature="0" /><path
           d="m 681.78658,528.26939 c -11.928,9.895 -25.647,21.951 -40.894,25.407 -31.385,7.112 -63.958,-7.563 -78.148,-19.997 -17.699,-15.508 -17.153,-39.103 -9.674,-29.082 6.898,9.244 14.739,17.53 24.395,23.981 32.094,21.442 52.153,11.351 63.577,7.624 20.77,-6.776 44.219,-20.345 48.731,-41.83 3.176,-15.12 -3.004,-46.648 -6.253,-59.793 -23.342,-94.447 -73.973,-60.489 -59.568,-34.951 3.81,6.754 8.575,6.295 14.621,4.163 10.706,-3.777 5.399,-15.172 -1.423,-14.565 -6.903,0.614 3.651,10.884 -1.375,12.758 -9.298,3.467 -9.223,-12.021 -7.034,-16.37 3.337,-6.625 20.929,-5.417 22.39,2.025 7.901,40.254 -47.315,27.21 -39.964,-9.097 4,-19.76 34.924,-12.543 31.009,-18.9 -45.322,-73.587 -91.35,-64.042 -96.43,-39.25 -2.664,13.003 -0.386,21.659 9.313,28.683 16.802,12.169 32.943,-11.655 21.305,-20.891 -8.614,-6.836 -16.637,4.18 -10.685,8.76 1.942,1.494 5.06,1.767 5.917,4.062 0.612,1.639 -0.454,3.558 -2.013,4.352 -5.603,2.854 -16.983,-4.872 -15.486,-15.948 1.967,-14.557 22.255,-19.722 32.081,-5.91 10.67,14.998 -1.831,38.83 -23.034,35.732 -24.419,-3.568 -39.118,-17.916 -34.598,-41.795 4.571,-24.146 26.387,-30.385 49.529,-27.064 15.694,2.252 8.674,2.046 -2.908,-23.737 -18.875,-42.017 -13.411,-59.847 -10.565,-76.334 0.928,-5.376 6.593,-34.164 11.861,-32.885 3.56,0.864 -1.076,3.936 -1.888,41.014 -0.582,26.578 -1.016,37.293 13.007,61.521 23.47,40.548 69.133,87.788 91.033,107.054 33.437,29.417 57.391,132.202 7.619,183.033 -35.293,36.045 -76.524,42.384 -122.609,27.849 -33.924,-10.699 -56.738,-32.979 -61.258,-69.375 -10.636,-85.638 67.4,-120.98 103.423,-86.628 16.544,15.776 4.49,44.186 -14.586,51.72 -21.763,8.595 -26.738,-12.434 -21.637,-18.998 2.638,-3.395 11.457,-4.283 13.315,2.351 2.55,9.099 0.356,14.356 6.508,11.367 7.66,-3.723 15.705,-14.634 14.244,-23.388 -5.388,-32.275 -84.84,-45.265 -74.954,61.484 4.207,45.427 49.992,64.028 89.608,68.362 29.507,3.228 51.152,-17.281 63.481,-44.736 0.141,-0.315 0.017,-0.748 0.017,-1.778 z"
           id="path86337"
           style="fill:#008033"
           inkscape:connector-curvature="0" /><path
           d="m 686.76958,608.64839 c -73.941,56.816 -189.675,23.803 -211.371,-86.754 -0.245,-1.25 -0.501,-2.939 1.454,-3.267 6.122,-1.026 4.396,2.264 12.787,18.767 21.485,42.258 54.235,68.839 100.78,70.456 41.405,1.439 81.13,0.589 114.246,-44.258 18.469,-25.012 30.042,-61.982 29.765,-68.338 -0.098,-2.254 0.8,-3.179 3.111,-3.187 6.204,-0.024 9.718,70.1 -50.772,116.581 z"
           id="path86341"
           style="fill:#008033"
           inkscape:connector-curvature="0" /><path
           d="m 641.47758,850.02539 c -43.742,-22.302 -4.152,-59.94 13.998,-49.871 41.538,23.043 2.164,58.11 -13.998,49.871 z"
           id="path86355"
           style="fill:#ece6ff;fill-opacity:1;stroke:#ece6ff;stroke-opacity:1"
           inkscape:connector-curvature="0" /><path
           d="m 621.68653,213.91235 c -1.01117,14.67916 -22.92813,26.47471 -37.05936,7.9868 -20.76028,-27.16334 39.50825,-43.5264 37.05936,-7.9868 z"
           id="path86357"
           style="fill:#ffffba;fill-opacity:1;stroke:#ffffba;stroke-width:0.7876538;stroke-opacity:1"
           inkscape:connector-curvature="0" /><path
           d="m 267.29658,1114.0994 c -16.641,0.811 -22.385,-9.415 -24.695,-21.085 -4.885,-24.688 20.486,-32.313 34.777,-26.613 20.78,8.287 20.254,46.221 -10.082,47.698 z"
           id="path86359"
           style="fill:#bae1ff;fill-opacity:1;stroke:#bae1ff;stroke-opacity:1"
           inkscape:connector-curvature="0" /><path
           d="m 1027.4776,1321.1294 c -9.415,9.06 -28.02705,7.768 -36.85202,-1.438 -22.543,-23.515 19.33502,-58.669 38.72802,-32.438 7.074,9.567 6.067,26.233 -1.876,33.876 z"
           id="path86361"
           style="fill:#ffb3ba;fill-opacity:1;stroke:#ffb3ba;stroke-opacity:1"
           inkscape:connector-curvature="0" /><path
           d="m 379.08958,838.34939 c 20.826,2.988 27.241,32.838 4.727,38.512 -38.56,9.717 -36.02,-43.001 -4.727,-38.512 z"
           id="path86367"
           style="fill:#ffb3ba;fill-opacity:1;stroke:#ffb3ba;stroke-opacity:1"
           inkscape:connector-curvature="0" /><path
           d="m 428.08158,1278.7424 c -0.154,-16.1 25.219,-30.549 39.346,-10.611 3.881,5.476 5.12,11.234 1.722,17.593 -15.794,29.555 -40.938,6.63 -41.068,-6.982 z"
           id="path86369"
           style="fill:#ffdfba;fill-opacity:1;stroke:#ffdfba;stroke-opacity:1"
           inkscape:connector-curvature="0" /><path
           d="m 933.28258,1108.9044 c 21.118,-15.408 45.304,15.717 26.098,31.44 -20.132,16.48 -50.245,-13.822 -26.098,-31.44 z"
           id="path86371"
           style="fill:#ffdfba;fill-opacity:1;stroke:#ffdfba;stroke-opacity:1"
           inkscape:connector-curvature="0" /><path
           d="m 657.79158,486.09139 c -3.212,14.699 -24.978,19.846 -29.906,-1.019 -6.114,-25.888 35.538,-24.757 29.906,1.019 z"
           id="path86373"
           style="fill:#ffdfba;fill-opacity:1;stroke:#ffdfba;stroke-opacity:1"
           inkscape:connector-curvature="0" /><path
           d="m 388.46558,1215.5704 c -1.458,-3.845 -1.157,-13.725 0.817,-17.593 5.432,-10.647 22.801,-3.183 25.035,6.256 1.902,8.036 -4.107,16.466 -12.48,16.45 -6.27,-0.012 -11.164,0.711 -13.372,-5.113 z"
           id="path86379"
           style="fill:#bae1ff;fill-opacity:1;stroke:#bae1ff;stroke-opacity:1"
           inkscape:connector-curvature="0" /><path
           d="m 710.85958,1254.0654 c -0.183,-19.753 35.16,-16.285 28.573,3.854 -4.078,12.468 -28.418,12.881 -28.573,-3.854 z"
           id="path86381"
           style="fill:#bae1ff;fill-opacity:1;stroke:#bae1ff;stroke-opacity:1"
           inkscape:connector-curvature="0" /><path
           d="m 845.45258,1227.2874 c -17.971,-0.031 -20.25,-26.461 1.476,-26.426 6.616,0.011 13.473,6.711 13.414,13.108 -0.064,6.928 -7.223,13.331 -14.89,13.318 z"
           id="path86383"
           style="fill:#ffdfba;fill-opacity:1;stroke:#ffdfba;stroke-opacity:1"
           inkscape:connector-curvature="0" /><path
           d="m 390.91658,724.69539 c 11.592,-18.755 37.042,14.041 15.247,21.851 -17.086,6.123 -21.602,-11.569 -15.247,-21.851 z"
           id="path86385"
           style="fill:#bae1ff;fill-opacity:1;stroke:#bae1ff;stroke-opacity:1"
           inkscape:connector-curvature="0" /><path
           d="m 633.14458,644.33839 c 11.854,0.393 20.075,15.637 10.231,24.163 -4.389,3.802 -11.323,4.435 -16.3,1.403 -10.099,-6.154 -9.268,-26.074 6.069,-25.566 z"
           id="path86387"
           style="fill:#ffb3ba;fill-opacity:1;stroke:#ffb3ba;stroke-opacity:1"
           inkscape:connector-curvature="0" /><path
           d="m 624.15558,246.41639 c 10.968,10.124 7.089,18.574 -5.477,25.266 -10.673,5.684 -21.335,-17.265 -10.099,-25.086 5.487,-3.819 10.703,-4.678 15.576,-0.18 z"
           id="path86389"
           style="fill:#ffffba;fill-opacity:1;stroke:#ffffba;stroke-opacity:1"
           inkscape:connector-curvature="0" /><path
           d="m 469.88558,577.56639 c -8.229,16.175 -31.341,4.014 -23.497,-11.525 6.618,-13.11 34.196,-9.508 23.497,11.525 z"
           id="path86391"
           style="fill:#ece6ff;fill-opacity:1;stroke:#ece6ff;stroke-opacity:1"
           inkscape:connector-curvature="0" /><path
           d="m 529.13158,381.85539 c -3.326,-10.132 13.78,-20.028 21.043,-13.086 3.089,2.953 7.411,7.383 7.561,11.902 0.375,11.244 -22.493,19.793 -28.604,1.184 z"
           id="path86393"
           style="fill:#ece6ff;fill-opacity:1;stroke:#ece6ff;stroke-opacity:1"
           inkscape:connector-curvature="0" /><path
           d="m 767.43158,1206.3984 c 0.051,-15.32 26.607,-17.678 26.565,1.324 -0.037,16.608 -26.631,18.269 -26.565,-1.324 z"
           id="path86395"
           style="fill:#ece6ff;fill-opacity:1;stroke:#ece6ff;stroke-opacity:1"
           inkscape:connector-curvature="0" /><path
           d="m 308.36258,1200.5184 c 1.165,-30.099 31.412,-10.923 25.051,3.26 -3.186,7.104 -25.701,13.541 -25.051,-3.26 z"
           id="path86397"
           style="fill:#ffb3ba;fill-opacity:1;stroke:#ffb3ba;stroke-opacity:1"
           inkscape:connector-curvature="0" /><path
           d="m 656.77363,85.47039 -68.88957,-9.639504 -30.00522,62.756504 -26.09673,-64.479867 -69.35134,5.392969 42.79284,-54.840365 -39.34612,-57.363537 68.88957,9.639504 30.00522,-62.756506 26.09673,64.479868 69.35134,-5.392968 -42.79284,54.840364 z"
           inkscape:randomized="0"
           inkscape:rounded="0"
           inkscape:flatsided="false"
           sodipodi:arg2="1.0779063"
           sodipodi:arg1="0.5543075"
           sodipodi:r2="56.128414"
           sodipodi:r1="112.25683"
           sodipodi:cy="26.38349"
           sodipodi:cx="561.32556"
           sodipodi:sides="6"
           id="path87313"
           style="opacity:0.91600001;fill:#ffffba;fill-opacity:1;stroke:none;stroke-width:3;stroke-linecap:round;stroke-miterlimit:4;stroke-dasharray:none;stroke-opacity:1;filter:url(#filter87323)"
           sodipodi:type="star"
           transform="matrix(0.83154243,0,0,0.74608162,111.88864,174.54759)" /><path
           sodipodi:type="star"
           style="opacity:0.91600001;fill:#ffffba;fill-opacity:1;stroke:none;stroke-width:3;stroke-linecap:round;stroke-miterlimit:4;stroke-dasharray:none;stroke-opacity:1;filter:url(#filter87377)"
           id="path87311"
           sodipodi:sides="6"
           sodipodi:cx="561.32556"
           sodipodi:cy="26.38349"
           sodipodi:r1="112.25683"
           sodipodi:r2="56.128414"
           sodipodi:arg1="0.5543075"
           sodipodi:arg2="1.0779063"
           inkscape:flatsided="false"
           inkscape:rounded="0"
           inkscape:randomized="0"
           d="m 656.77363,85.47039 -68.88957,-9.639504 -30.00522,62.756504 -26.09673,-64.479867 -69.35134,5.392969 42.79284,-54.840365 -39.34612,-57.363537 68.88957,9.639504 30.00522,-62.756506 26.09673,64.479868 69.35134,-5.392968 -42.79284,54.840364 z"
           transform="matrix(0.83154243,0,0,0.74608162,111.88864,174.54759)" /></g></g></g></svg>
